# xmcd
#
# Track frame offsets: 
#        225
#        16379
#        37092
#        57356
#        76768
#        94850
#        117420
#        132910
#        153309
#        174884
#        195042
#        219421
#
# Disc length: 3193 seconds
#
# Revision: 0
# Processed by: cddbd v1.4PL0 Copyright (c) Steve Scherf et al.
# Submitted via: ExactAudioCopy v0.90b4
#
DISCID=920c760c
DTITLE=Jimmy "O" - Barbed Wire And Silk
DYEAR=1999
DGENRE=Modern Electric Blues
TTITLE0=Livin' For The Good Time
TTITLE1=Been Down That Road
TTITLE2=She Won't Do It (But Her Sister Will)
TTITLE3=Trouble On 2 Legs
TTITLE4=Ain't Too Hard
TTITLE5=Under The Weather
TTITLE6=Wind Chill Blues
TTITLE7=Breakdown
TTITLE8=Good Lovin' Gone Bad
TTITLE9=Nobody's Fool
TTITLE10=Goin' Down In Flames
TTITLE11=Hit And Run
EXTD=
EXTT0=
EXTT1=
EXTT2=
EXTT3=
EXTT4=
EXTT5=
EXTT6=
EXTT7=
EXTT8=
EXTT9=
EXTT10=
EXTT11=
PLAYORDER=
